<mxfile host="app.diagrams.net" modified="2024-01-03T07:06:39.689Z" agent="Mozilla/5.0 (Windows NT 10.0; Win64; x64) AppleWebKit/537.36 (KHTML, like Gecko) Chrome/120.0.0.0 Safari/537.36" etag="BFEJncWaoD3k7O42G93_" version="22.1.16" type="github">
  <diagram name="페이지-1" id="wxs_Wtr0wxrOdvEkrEwr">
    <mxGraphModel dx="2498" dy="1638" grid="0" gridSize="10" guides="1" tooltips="1" connect="1" arrows="1" fold="1" page="0" pageScale="1" pageWidth="1920" pageHeight="1200" math="0" shadow="0">
      <root>
        <mxCell id="0" />
        <mxCell id="1" parent="0" />
        <mxCell id="itXVkqnYyYkKykjOScgN-53" style="edgeStyle=none;curved=1;rounded=0;orthogonalLoop=1;jettySize=auto;html=1;entryX=0;entryY=0.5;entryDx=0;entryDy=0;fontSize=12;startSize=8;endSize=8;" edge="1" parent="1" source="itXVkqnYyYkKykjOScgN-1" target="itXVkqnYyYkKykjOScgN-5">
          <mxGeometry relative="1" as="geometry" />
        </mxCell>
        <mxCell id="itXVkqnYyYkKykjOScgN-1" value="Actor" style="shape=umlActor;verticalLabelPosition=bottom;verticalAlign=top;html=1;outlineConnect=0;fontSize=16;" vertex="1" parent="1">
          <mxGeometry x="-265" y="120" width="30" height="60" as="geometry" />
        </mxCell>
        <mxCell id="itXVkqnYyYkKykjOScgN-42" style="edgeStyle=none;curved=1;rounded=0;orthogonalLoop=1;jettySize=auto;html=1;entryX=0;entryY=0.5;entryDx=0;entryDy=0;fontSize=12;startSize=8;endSize=8;" edge="1" parent="1" source="itXVkqnYyYkKykjOScgN-3" target="itXVkqnYyYkKykjOScgN-4">
          <mxGeometry relative="1" as="geometry" />
        </mxCell>
        <mxCell id="itXVkqnYyYkKykjOScgN-3" value="회원가입" style="ellipse;whiteSpace=wrap;html=1;fontSize=13;" vertex="1" parent="1">
          <mxGeometry x="178" y="-179" width="85" height="60" as="geometry" />
        </mxCell>
        <mxCell id="itXVkqnYyYkKykjOScgN-4" value="ID 중복 검사" style="ellipse;whiteSpace=wrap;html=1;fontSize=13;" vertex="1" parent="1">
          <mxGeometry x="331" y="-179" width="85" height="60" as="geometry" />
        </mxCell>
        <mxCell id="itXVkqnYyYkKykjOScgN-32" style="edgeStyle=none;curved=1;rounded=0;orthogonalLoop=1;jettySize=auto;html=1;entryX=0;entryY=0.5;entryDx=0;entryDy=0;fontSize=12;startSize=8;endSize=8;" edge="1" parent="1" source="itXVkqnYyYkKykjOScgN-5" target="itXVkqnYyYkKykjOScgN-16">
          <mxGeometry relative="1" as="geometry" />
        </mxCell>
        <mxCell id="itXVkqnYyYkKykjOScgN-33" style="edgeStyle=none;curved=1;rounded=0;orthogonalLoop=1;jettySize=auto;html=1;entryX=0;entryY=0.5;entryDx=0;entryDy=0;fontSize=12;startSize=8;endSize=8;" edge="1" parent="1" source="itXVkqnYyYkKykjOScgN-5" target="itXVkqnYyYkKykjOScgN-17">
          <mxGeometry relative="1" as="geometry" />
        </mxCell>
        <mxCell id="itXVkqnYyYkKykjOScgN-34" style="edgeStyle=none;curved=1;rounded=0;orthogonalLoop=1;jettySize=auto;html=1;entryX=0;entryY=0.5;entryDx=0;entryDy=0;fontSize=12;startSize=8;endSize=8;" edge="1" parent="1" source="itXVkqnYyYkKykjOScgN-5" target="itXVkqnYyYkKykjOScgN-20">
          <mxGeometry relative="1" as="geometry" />
        </mxCell>
        <mxCell id="itXVkqnYyYkKykjOScgN-35" style="edgeStyle=none;curved=1;rounded=0;orthogonalLoop=1;jettySize=auto;html=1;entryX=0;entryY=0.5;entryDx=0;entryDy=0;fontSize=12;startSize=8;endSize=8;" edge="1" parent="1" source="itXVkqnYyYkKykjOScgN-5" target="itXVkqnYyYkKykjOScgN-14">
          <mxGeometry relative="1" as="geometry" />
        </mxCell>
        <mxCell id="itXVkqnYyYkKykjOScgN-36" style="edgeStyle=none;curved=1;rounded=0;orthogonalLoop=1;jettySize=auto;html=1;entryX=0;entryY=0.5;entryDx=0;entryDy=0;fontSize=12;startSize=8;endSize=8;" edge="1" parent="1" source="itXVkqnYyYkKykjOScgN-5" target="itXVkqnYyYkKykjOScgN-13">
          <mxGeometry relative="1" as="geometry" />
        </mxCell>
        <mxCell id="itXVkqnYyYkKykjOScgN-37" style="edgeStyle=none;curved=1;rounded=0;orthogonalLoop=1;jettySize=auto;html=1;entryX=0;entryY=0.5;entryDx=0;entryDy=0;fontSize=12;startSize=8;endSize=8;" edge="1" parent="1" source="itXVkqnYyYkKykjOScgN-5" target="itXVkqnYyYkKykjOScgN-8">
          <mxGeometry relative="1" as="geometry" />
        </mxCell>
        <mxCell id="itXVkqnYyYkKykjOScgN-38" style="edgeStyle=none;curved=1;rounded=0;orthogonalLoop=1;jettySize=auto;html=1;entryX=0;entryY=0.5;entryDx=0;entryDy=0;fontSize=12;startSize=8;endSize=8;" edge="1" parent="1" source="itXVkqnYyYkKykjOScgN-5" target="itXVkqnYyYkKykjOScgN-15">
          <mxGeometry relative="1" as="geometry" />
        </mxCell>
        <mxCell id="itXVkqnYyYkKykjOScgN-39" style="edgeStyle=none;curved=1;rounded=0;orthogonalLoop=1;jettySize=auto;html=1;entryX=0;entryY=0.5;entryDx=0;entryDy=0;fontSize=12;startSize=8;endSize=8;" edge="1" parent="1" source="itXVkqnYyYkKykjOScgN-5" target="itXVkqnYyYkKykjOScgN-27">
          <mxGeometry relative="1" as="geometry" />
        </mxCell>
        <mxCell id="itXVkqnYyYkKykjOScgN-40" style="edgeStyle=none;curved=1;rounded=0;orthogonalLoop=1;jettySize=auto;html=1;entryX=0;entryY=0.5;entryDx=0;entryDy=0;fontSize=12;startSize=8;endSize=8;" edge="1" parent="1" source="itXVkqnYyYkKykjOScgN-5" target="itXVkqnYyYkKykjOScgN-25">
          <mxGeometry relative="1" as="geometry" />
        </mxCell>
        <mxCell id="itXVkqnYyYkKykjOScgN-5" value="메인" style="ellipse;whiteSpace=wrap;html=1;fontSize=13;" vertex="1" parent="1">
          <mxGeometry x="-195" y="120" width="85" height="60" as="geometry" />
        </mxCell>
        <mxCell id="itXVkqnYyYkKykjOScgN-6" value="로그아웃" style="ellipse;whiteSpace=wrap;html=1;fontSize=13;" vertex="1" parent="1">
          <mxGeometry x="189" y="408" width="85" height="60" as="geometry" />
        </mxCell>
        <mxCell id="itXVkqnYyYkKykjOScgN-7" value="분리수거 검색" style="ellipse;whiteSpace=wrap;html=1;fontSize=13;" vertex="1" parent="1">
          <mxGeometry x="178" y="-101" width="85" height="60" as="geometry" />
        </mxCell>
        <mxCell id="itXVkqnYyYkKykjOScgN-8" value="자주 검색하는 데이터 선택" style="ellipse;whiteSpace=wrap;html=1;fontSize=12;" vertex="1" parent="1">
          <mxGeometry x="5" y="70" width="85" height="60" as="geometry" />
        </mxCell>
        <mxCell id="itXVkqnYyYkKykjOScgN-10" value="이미지 촬영" style="ellipse;whiteSpace=wrap;html=1;fontSize=13;" vertex="1" parent="1">
          <mxGeometry x="331" y="-35" width="85" height="60" as="geometry" />
        </mxCell>
        <mxCell id="itXVkqnYyYkKykjOScgN-50" style="edgeStyle=none;curved=1;rounded=0;orthogonalLoop=1;jettySize=auto;html=1;fontSize=12;startSize=8;endSize=8;" edge="1" parent="1" source="itXVkqnYyYkKykjOScgN-11" target="itXVkqnYyYkKykjOScgN-26">
          <mxGeometry relative="1" as="geometry" />
        </mxCell>
        <mxCell id="itXVkqnYyYkKykjOScgN-11" value="동네 랭킹" style="ellipse;whiteSpace=wrap;html=1;fontSize=13;" vertex="1" parent="1">
          <mxGeometry x="188.5" y="276" width="85" height="60" as="geometry" />
        </mxCell>
        <mxCell id="itXVkqnYyYkKykjOScgN-12" value="개인 랭킹" style="ellipse;whiteSpace=wrap;html=1;fontSize=13;" vertex="1" parent="1">
          <mxGeometry x="188.5" y="341" width="85" height="60" as="geometry" />
        </mxCell>
        <mxCell id="itXVkqnYyYkKykjOScgN-13" value="카테고리 선택" style="ellipse;whiteSpace=wrap;html=1;fontSize=13;" vertex="1" parent="1">
          <mxGeometry x="5" y="140" width="85" height="60" as="geometry" />
        </mxCell>
        <mxCell id="itXVkqnYyYkKykjOScgN-47" style="edgeStyle=none;curved=1;rounded=0;orthogonalLoop=1;jettySize=auto;html=1;entryX=0;entryY=0.5;entryDx=0;entryDy=0;fontSize=12;startSize=8;endSize=8;" edge="1" parent="1" source="itXVkqnYyYkKykjOScgN-14" target="itXVkqnYyYkKykjOScgN-29">
          <mxGeometry relative="1" as="geometry" />
        </mxCell>
        <mxCell id="itXVkqnYyYkKykjOScgN-14" value="분리수거 퀴즈" style="ellipse;whiteSpace=wrap;html=1;fontSize=13;" vertex="1" parent="1">
          <mxGeometry x="5" y="210" width="85" height="60" as="geometry" />
        </mxCell>
        <mxCell id="itXVkqnYyYkKykjOScgN-15" value="출석체크" style="ellipse;whiteSpace=wrap;html=1;fontSize=13;" vertex="1" parent="1">
          <mxGeometry x="3" y="3" width="85" height="60" as="geometry" />
        </mxCell>
        <mxCell id="itXVkqnYyYkKykjOScgN-52" style="edgeStyle=none;curved=1;rounded=0;orthogonalLoop=1;jettySize=auto;html=1;entryX=0;entryY=0.5;entryDx=0;entryDy=0;fontSize=12;startSize=8;endSize=8;" edge="1" parent="1" source="itXVkqnYyYkKykjOScgN-16" target="itXVkqnYyYkKykjOScgN-31">
          <mxGeometry relative="1" as="geometry" />
        </mxCell>
        <mxCell id="itXVkqnYyYkKykjOScgN-16" value="포인트 상점" style="ellipse;whiteSpace=wrap;html=1;fontSize=13;" vertex="1" parent="1">
          <mxGeometry x="7" y="474" width="85" height="60" as="geometry" />
        </mxCell>
        <mxCell id="itXVkqnYyYkKykjOScgN-51" style="edgeStyle=none;curved=1;rounded=0;orthogonalLoop=1;jettySize=auto;html=1;entryX=0;entryY=0.5;entryDx=0;entryDy=0;fontSize=12;startSize=8;endSize=8;" edge="1" parent="1" source="itXVkqnYyYkKykjOScgN-17" target="itXVkqnYyYkKykjOScgN-6">
          <mxGeometry relative="1" as="geometry" />
        </mxCell>
        <mxCell id="itXVkqnYyYkKykjOScgN-17" value="회원정보 수정" style="ellipse;whiteSpace=wrap;html=1;fontSize=13;" vertex="1" parent="1">
          <mxGeometry x="7" y="408" width="85" height="60" as="geometry" />
        </mxCell>
        <mxCell id="itXVkqnYyYkKykjOScgN-48" style="edgeStyle=none;curved=1;rounded=0;orthogonalLoop=1;jettySize=auto;html=1;entryX=0;entryY=0.5;entryDx=0;entryDy=0;fontSize=12;startSize=8;endSize=8;" edge="1" parent="1" source="itXVkqnYyYkKykjOScgN-20" target="itXVkqnYyYkKykjOScgN-11">
          <mxGeometry relative="1" as="geometry" />
        </mxCell>
        <mxCell id="itXVkqnYyYkKykjOScgN-49" style="edgeStyle=none;curved=1;rounded=0;orthogonalLoop=1;jettySize=auto;html=1;entryX=0;entryY=0.5;entryDx=0;entryDy=0;fontSize=12;startSize=8;endSize=8;" edge="1" parent="1" source="itXVkqnYyYkKykjOScgN-20" target="itXVkqnYyYkKykjOScgN-12">
          <mxGeometry relative="1" as="geometry" />
        </mxCell>
        <mxCell id="itXVkqnYyYkKykjOScgN-20" value="랭킹" style="ellipse;whiteSpace=wrap;html=1;fontSize=13;" vertex="1" parent="1">
          <mxGeometry x="7" y="306" width="85" height="60" as="geometry" />
        </mxCell>
        <mxCell id="itXVkqnYyYkKykjOScgN-41" style="edgeStyle=none;curved=1;rounded=0;orthogonalLoop=1;jettySize=auto;html=1;entryX=0;entryY=0.5;entryDx=0;entryDy=0;fontSize=12;startSize=8;endSize=8;" edge="1" parent="1" source="itXVkqnYyYkKykjOScgN-25" target="itXVkqnYyYkKykjOScgN-3">
          <mxGeometry relative="1" as="geometry" />
        </mxCell>
        <mxCell id="itXVkqnYyYkKykjOScgN-25" value="로그인" style="ellipse;whiteSpace=wrap;html=1;fontSize=13;" vertex="1" parent="1">
          <mxGeometry y="-132" width="85" height="60" as="geometry" />
        </mxCell>
        <mxCell id="itXVkqnYyYkKykjOScgN-26" value="지도" style="ellipse;whiteSpace=wrap;html=1;fontSize=13;" vertex="1" parent="1">
          <mxGeometry x="334" y="276" width="85" height="60" as="geometry" />
        </mxCell>
        <mxCell id="itXVkqnYyYkKykjOScgN-43" style="edgeStyle=none;curved=1;rounded=0;orthogonalLoop=1;jettySize=auto;html=1;entryX=0;entryY=0.5;entryDx=0;entryDy=0;fontSize=12;startSize=8;endSize=8;" edge="1" parent="1" source="itXVkqnYyYkKykjOScgN-27" target="itXVkqnYyYkKykjOScgN-7">
          <mxGeometry relative="1" as="geometry" />
        </mxCell>
        <mxCell id="itXVkqnYyYkKykjOScgN-44" style="edgeStyle=none;curved=1;rounded=0;orthogonalLoop=1;jettySize=auto;html=1;entryX=0;entryY=0.5;entryDx=0;entryDy=0;fontSize=12;startSize=8;endSize=8;" edge="1" parent="1" source="itXVkqnYyYkKykjOScgN-27" target="itXVkqnYyYkKykjOScgN-28">
          <mxGeometry relative="1" as="geometry" />
        </mxCell>
        <mxCell id="itXVkqnYyYkKykjOScgN-27" value="검색" style="ellipse;whiteSpace=wrap;html=1;fontSize=13;" vertex="1" parent="1">
          <mxGeometry y="-66" width="85" height="60" as="geometry" />
        </mxCell>
        <mxCell id="itXVkqnYyYkKykjOScgN-45" style="edgeStyle=none;curved=1;rounded=0;orthogonalLoop=1;jettySize=auto;html=1;entryX=0;entryY=0.5;entryDx=0;entryDy=0;fontSize=12;startSize=8;endSize=8;" edge="1" parent="1" source="itXVkqnYyYkKykjOScgN-28" target="itXVkqnYyYkKykjOScgN-10">
          <mxGeometry relative="1" as="geometry" />
        </mxCell>
        <mxCell id="itXVkqnYyYkKykjOScgN-28" value="이미지 검색" style="ellipse;whiteSpace=wrap;html=1;fontSize=13;" vertex="1" parent="1">
          <mxGeometry x="178" y="-35" width="85" height="60" as="geometry" />
        </mxCell>
        <mxCell id="itXVkqnYyYkKykjOScgN-29" value="포인트 추가 및 퀴즈해설 출력" style="ellipse;whiteSpace=wrap;html=1;fontSize=13;" vertex="1" parent="1">
          <mxGeometry x="183" y="210" width="96" height="60" as="geometry" />
        </mxCell>
        <mxCell id="itXVkqnYyYkKykjOScgN-31" value="상품 구매" style="ellipse;whiteSpace=wrap;html=1;fontSize=13;" vertex="1" parent="1">
          <mxGeometry x="188.5" y="474" width="85" height="60" as="geometry" />
        </mxCell>
      </root>
    </mxGraphModel>
  </diagram>
</mxfile>
